<svg width="960" height="960" xmlns="http://www.w3.org/2000/svg">

 <g>
  <title>Layer 1</title>
  <path id="svg_1" d="m280,-240q-17,0 -28.5,-11.5t-11.5,-28.5l0,-80l520,0l0,-360l80,0q17,0 28.5,11.5t11.5,28.5l0,503q0,27 -24.5,37.5t-43.5,-8.5l-92,-92l-440,0zm-40,-200l-92,92q-19,19 -43.5,8.5t-24.5,-37.5l0,-463q0,-17 11.5,-28.5t28.5,-11.5l520,0q17,0 28.5,11.5t11.5,28.5l0,360q0,17 -11.5,28.5t-28.5,11.5l-400,0zm360,-80l0,-280l-440,0l0,280l440,0zm-440,0l0,-280l0,280z"/>
  <g>
   <path stroke="#fff" fill="#ffffff" d="m280,747.88135q-17,0 -28.5,-11.5t-11.5,-28.5l0,-80l520,0l0,-360l80,0q17,0 28.5,11.5t11.5,28.5l0,503q0,27 -24.5,37.5t-43.5,-8.5l-92,-92l-440,0zm-40,-200l-92,92q-19,19 -43.5,8.5t-24.5,-37.5l0,-463q0,-17 11.5,-28.5t28.5,-11.5l520,0q17,0 28.5,11.5t11.5,28.5l0,360q0,17 -11.5,28.5t-28.5,11.5l-400,0zm360,-80l0,-280l-440,0l0,280l440,0zm-440,0l0,-280l0,280z"/>
  </g>
 </g>
</svg>